{
	"patcher" : 	{
		"fileversion" : 1,
		"appversion" : 		{
			"major" : 7,
			"minor" : 3,
			"revision" : 4,
			"architecture" : "x64",
			"modernui" : 1
		}
,
		"rect" : [ 59.0, 302.0, 640.0, 392.0 ],
		"bglocked" : 0,
		"openinpresentation" : 1,
		"default_fontsize" : 12.0,
		"default_fontface" : 0,
		"default_fontname" : "Arial",
		"gridonopen" : 1,
		"gridsize" : [ 15.0, 15.0 ],
		"gridsnaponopen" : 1,
		"objectsnaponopen" : 1,
		"statusbarvisible" : 2,
		"toolbarvisible" : 1,
		"lefttoolbarpinned" : 0,
		"toptoolbarpinned" : 0,
		"righttoolbarpinned" : 0,
		"bottomtoolbarpinned" : 0,
		"toolbars_unpinned_last_save" : 0,
		"tallnewobj" : 0,
		"boxanimatetime" : 200,
		"enablehscroll" : 1,
		"enablevscroll" : 1,
		"devicewidth" : 0.0,
		"description" : "",
		"digest" : "",
		"tags" : "",
		"style" : "",
		"subpatcher_template" : "",
		"boxes" : [ 			{
				"box" : 				{
					"id" : "obj-52",
					"maxclass" : "comment",
					"numinlets" : 1,
					"numoutlets" : 0,
					"patching_rect" : [ 129.0, 445.0, 150.0, 20.0 ],
					"presentation" : 1,
					"presentation_rect" : [ 366.0, 45.0, 48.0, 20.0 ],
					"style" : "",
					"text" : "res 3"
				}

			}
, 			{
				"box" : 				{
					"id" : "obj-50",
					"maxclass" : "comment",
					"numinlets" : 1,
					"numoutlets" : 0,
					"patching_rect" : [ 101.0, 429.0, 150.0, 20.0 ],
					"presentation" : 1,
					"presentation_rect" : [ 193.0, 45.0, 48.0, 20.0 ],
					"style" : "",
					"text" : "res 2"
				}

			}
, 			{
				"box" : 				{
					"id" : "obj-47",
					"maxclass" : "comment",
					"numinlets" : 1,
					"numoutlets" : 0,
					"patching_rect" : [ 84.0, 400.0, 150.0, 20.0 ],
					"presentation" : 1,
					"presentation_rect" : [ 19.0, 45.0, 48.0, 20.0 ],
					"style" : "",
					"text" : "res 1"
				}

			}
, 			{
				"box" : 				{
					"id" : "obj-44",
					"maxclass" : "newobj",
					"numinlets" : 2,
					"numoutlets" : 1,
					"outlettype" : [ "signal" ],
					"patching_rect" : [ 24.0, 133.0, 49.0, 22.0 ],
					"style" : "",
					"text" : "*~ 100."
				}

			}
, 			{
				"box" : 				{
					"id" : "obj-43",
					"maxclass" : "message",
					"numinlets" : 2,
					"numoutlets" : 1,
					"outlettype" : [ "" ],
					"patching_rect" : [ 270.0, 263.0, 37.0, 22.0 ],
					"style" : "",
					"text" : "clear"
				}

			}
, 			{
				"box" : 				{
					"format" : 6,
					"id" : "obj-33",
					"maxclass" : "flonum",
					"numinlets" : 1,
					"numoutlets" : 2,
					"outlettype" : [ "", "bang" ],
					"parameter_enable" : 0,
					"patching_rect" : [ 552.0, 306.0, 50.0, 22.0 ],
					"style" : ""
				}

			}
, 			{
				"box" : 				{
					"id" : "obj-34",
					"maxclass" : "comment",
					"numinlets" : 1,
					"numoutlets" : 0,
					"patching_rect" : [ 552.0, 209.0, 70.0, 20.0 ],
					"style" : "",
					"text" : "decayrate"
				}

			}
, 			{
				"box" : 				{
					"id" : "obj-35",
					"maxclass" : "live.dial",
					"numinlets" : 1,
					"numoutlets" : 2,
					"outlettype" : [ "", "float" ],
					"parameter_enable" : 1,
					"patching_rect" : [ 552.0, 238.0, 44.0, 47.0 ],
					"presentation" : 1,
					"presentation_rect" : [ 466.0, 69.0, 54.0, 47.0 ],
					"saved_attribute_attributes" : 					{
						"valueof" : 						{
							"parameter_longname" : "delay rate[2]",
							"parameter_shortname" : "delay rate",
							"parameter_type" : 0,
							"parameter_mmax" : 100.0,
							"parameter_unitstyle" : 1
						}

					}
,
					"varname" : "live.dial[6]"
				}

			}
, 			{
				"box" : 				{
					"format" : 6,
					"id" : "obj-36",
					"maxclass" : "flonum",
					"numinlets" : 1,
					"numoutlets" : 2,
					"outlettype" : [ "", "bang" ],
					"parameter_enable" : 0,
					"patching_rect" : [ 490.0, 306.0, 50.0, 22.0 ],
					"style" : ""
				}

			}
, 			{
				"box" : 				{
					"id" : "obj-37",
					"maxclass" : "comment",
					"numinlets" : 1,
					"numoutlets" : 0,
					"patching_rect" : [ 490.0, 209.0, 44.0, 20.0 ],
					"style" : "",
					"text" : "gain"
				}

			}
, 			{
				"box" : 				{
					"id" : "obj-38",
					"maxclass" : "comment",
					"numinlets" : 1,
					"numoutlets" : 0,
					"patching_rect" : [ 429.0, 209.0, 39.0, 20.0 ],
					"style" : "",
					"text" : "freq"
				}

			}
, 			{
				"box" : 				{
					"id" : "obj-39",
					"maxclass" : "live.dial",
					"numinlets" : 1,
					"numoutlets" : 2,
					"outlettype" : [ "", "float" ],
					"parameter_enable" : 1,
					"patching_rect" : [ 490.0, 238.0, 44.0, 47.0 ],
					"presentation" : 1,
					"presentation_rect" : [ 416.0, 69.0, 44.0, 47.0 ],
					"saved_attribute_attributes" : 					{
						"valueof" : 						{
							"parameter_longname" : "gain[2]",
							"parameter_shortname" : "gain",
							"parameter_type" : 0,
							"parameter_mmax" : 1.0,
							"parameter_unitstyle" : 1
						}

					}
,
					"varname" : "live.dial[7]"
				}

			}
, 			{
				"box" : 				{
					"id" : "obj-40",
					"maxclass" : "live.dial",
					"numinlets" : 1,
					"numoutlets" : 2,
					"outlettype" : [ "", "float" ],
					"parameter_enable" : 1,
					"patching_rect" : [ 429.0, 238.0, 44.0, 47.0 ],
					"presentation" : 1,
					"presentation_rect" : [ 366.0, 69.0, 44.0, 47.0 ],
					"saved_attribute_attributes" : 					{
						"valueof" : 						{
							"parameter_longname" : "freqency[2]",
							"parameter_shortname" : "freq",
							"parameter_type" : 0,
							"parameter_mmax" : 20000.0,
							"parameter_unitstyle" : 1
						}

					}
,
					"varname" : "live.dial[8]"
				}

			}
, 			{
				"box" : 				{
					"format" : 6,
					"id" : "obj-41",
					"maxclass" : "flonum",
					"numinlets" : 1,
					"numoutlets" : 2,
					"outlettype" : [ "", "bang" ],
					"parameter_enable" : 0,
					"patching_rect" : [ 429.0, 306.0, 50.0, 22.0 ],
					"style" : ""
				}

			}
, 			{
				"box" : 				{
					"format" : 6,
					"id" : "obj-17",
					"maxclass" : "flonum",
					"numinlets" : 1,
					"numoutlets" : 2,
					"outlettype" : [ "", "bang" ],
					"parameter_enable" : 0,
					"patching_rect" : [ 552.0, 165.0, 50.0, 22.0 ],
					"style" : ""
				}

			}
, 			{
				"box" : 				{
					"id" : "obj-19",
					"maxclass" : "comment",
					"numinlets" : 1,
					"numoutlets" : 0,
					"patching_rect" : [ 552.0, 68.0, 70.0, 20.0 ],
					"style" : "",
					"text" : "decayrate"
				}

			}
, 			{
				"box" : 				{
					"id" : "obj-21",
					"maxclass" : "live.dial",
					"numinlets" : 1,
					"numoutlets" : 2,
					"outlettype" : [ "", "float" ],
					"parameter_enable" : 1,
					"patching_rect" : [ 552.0, 97.0, 44.0, 47.0 ],
					"presentation" : 1,
					"presentation_rect" : [ 288.0, 69.0, 54.0, 47.0 ],
					"saved_attribute_attributes" : 					{
						"valueof" : 						{
							"parameter_longname" : "delay rate[1]",
							"parameter_shortname" : "delay rate",
							"parameter_type" : 0,
							"parameter_mmax" : 100.0,
							"parameter_unitstyle" : 1
						}

					}
,
					"varname" : "live.dial[3]"
				}

			}
, 			{
				"box" : 				{
					"format" : 6,
					"id" : "obj-23",
					"maxclass" : "flonum",
					"numinlets" : 1,
					"numoutlets" : 2,
					"outlettype" : [ "", "bang" ],
					"parameter_enable" : 0,
					"patching_rect" : [ 490.0, 165.0, 50.0, 22.0 ],
					"style" : ""
				}

			}
, 			{
				"box" : 				{
					"id" : "obj-26",
					"maxclass" : "comment",
					"numinlets" : 1,
					"numoutlets" : 0,
					"patching_rect" : [ 490.0, 68.0, 44.0, 20.0 ],
					"style" : "",
					"text" : "gain"
				}

			}
, 			{
				"box" : 				{
					"id" : "obj-28",
					"maxclass" : "comment",
					"numinlets" : 1,
					"numoutlets" : 0,
					"patching_rect" : [ 429.0, 68.0, 39.0, 20.0 ],
					"style" : "",
					"text" : "freq"
				}

			}
, 			{
				"box" : 				{
					"id" : "obj-29",
					"maxclass" : "live.dial",
					"numinlets" : 1,
					"numoutlets" : 2,
					"outlettype" : [ "", "float" ],
					"parameter_enable" : 1,
					"patching_rect" : [ 490.0, 97.0, 44.0, 47.0 ],
					"presentation" : 1,
					"presentation_rect" : [ 239.0, 69.0, 44.0, 47.0 ],
					"saved_attribute_attributes" : 					{
						"valueof" : 						{
							"parameter_longname" : "gain[1]",
							"parameter_shortname" : "gain",
							"parameter_type" : 0,
							"parameter_mmax" : 1.0,
							"parameter_unitstyle" : 1
						}

					}
,
					"varname" : "live.dial[4]"
				}

			}
, 			{
				"box" : 				{
					"id" : "obj-30",
					"maxclass" : "live.dial",
					"numinlets" : 1,
					"numoutlets" : 2,
					"outlettype" : [ "", "float" ],
					"parameter_enable" : 1,
					"patching_rect" : [ 429.0, 97.0, 44.0, 47.0 ],
					"presentation" : 1,
					"presentation_rect" : [ 189.0, 69.0, 44.0, 47.0 ],
					"saved_attribute_attributes" : 					{
						"valueof" : 						{
							"parameter_longname" : "freqency[1]",
							"parameter_shortname" : "freq",
							"parameter_type" : 0,
							"parameter_mmax" : 20000.0,
							"parameter_unitstyle" : 1
						}

					}
,
					"varname" : "live.dial[5]"
				}

			}
, 			{
				"box" : 				{
					"format" : 6,
					"id" : "obj-31",
					"maxclass" : "flonum",
					"numinlets" : 1,
					"numoutlets" : 2,
					"outlettype" : [ "", "bang" ],
					"parameter_enable" : 0,
					"patching_rect" : [ 429.0, 165.0, 50.0, 22.0 ],
					"style" : ""
				}

			}
, 			{
				"box" : 				{
					"id" : "obj-5",
					"maxclass" : "comment",
					"numinlets" : 1,
					"numoutlets" : 0,
					"patching_rect" : [ 24.0, 14.0, 150.0, 20.0 ],
					"presentation" : 1,
					"presentation_rect" : [ 19.0, 11.0, 150.0, 20.0 ],
					"style" : "",
					"text" : "Resonator"
				}

			}
, 			{
				"box" : 				{
					"format" : 6,
					"id" : "obj-27",
					"maxclass" : "flonum",
					"numinlets" : 1,
					"numoutlets" : 2,
					"outlettype" : [ "", "bang" ],
					"parameter_enable" : 0,
					"patching_rect" : [ 288.0, 165.0, 50.0, 22.0 ],
					"style" : ""
				}

			}
, 			{
				"box" : 				{
					"id" : "obj-25",
					"maxclass" : "comment",
					"numinlets" : 1,
					"numoutlets" : 0,
					"patching_rect" : [ 288.0, 68.0, 70.0, 20.0 ],
					"style" : "",
					"text" : "decayrate"
				}

			}
, 			{
				"box" : 				{
					"id" : "obj-24",
					"maxclass" : "live.dial",
					"numinlets" : 1,
					"numoutlets" : 2,
					"outlettype" : [ "", "float" ],
					"parameter_enable" : 1,
					"patching_rect" : [ 288.0, 97.0, 44.0, 47.0 ],
					"presentation" : 1,
					"presentation_rect" : [ 119.0, 69.0, 54.0, 47.0 ],
					"saved_attribute_attributes" : 					{
						"valueof" : 						{
							"parameter_longname" : "delay rate",
							"parameter_shortname" : "delay rate",
							"parameter_type" : 0,
							"parameter_mmax" : 100.0,
							"parameter_unitstyle" : 1
						}

					}
,
					"varname" : "live.dial[2]"
				}

			}
, 			{
				"box" : 				{
					"format" : 6,
					"id" : "obj-22",
					"maxclass" : "flonum",
					"numinlets" : 1,
					"numoutlets" : 2,
					"outlettype" : [ "", "bang" ],
					"parameter_enable" : 0,
					"patching_rect" : [ 227.0, 165.0, 50.0, 22.0 ],
					"style" : ""
				}

			}
, 			{
				"box" : 				{
					"id" : "obj-20",
					"maxclass" : "comment",
					"numinlets" : 1,
					"numoutlets" : 0,
					"patching_rect" : [ 227.0, 68.0, 44.0, 20.0 ],
					"style" : "",
					"text" : "gain"
				}

			}
, 			{
				"box" : 				{
					"id" : "obj-18",
					"maxclass" : "comment",
					"numinlets" : 1,
					"numoutlets" : 0,
					"patching_rect" : [ 166.0, 68.0, 39.0, 20.0 ],
					"style" : "",
					"text" : "freq"
				}

			}
, 			{
				"box" : 				{
					"id" : "obj-16",
					"maxclass" : "live.dial",
					"numinlets" : 1,
					"numoutlets" : 2,
					"outlettype" : [ "", "float" ],
					"parameter_enable" : 1,
					"patching_rect" : [ 227.0, 97.0, 44.0, 47.0 ],
					"presentation" : 1,
					"presentation_rect" : [ 69.0, 69.0, 44.0, 47.0 ],
					"saved_attribute_attributes" : 					{
						"valueof" : 						{
							"parameter_longname" : "gain",
							"parameter_shortname" : "gain",
							"parameter_type" : 0,
							"parameter_mmax" : 1.0,
							"parameter_unitstyle" : 1
						}

					}
,
					"varname" : "live.dial[1]"
				}

			}
, 			{
				"box" : 				{
					"comment" : "",
					"id" : "obj-14",
					"index" : 1,
					"maxclass" : "outlet",
					"numinlets" : 1,
					"numoutlets" : 0,
					"patching_rect" : [ 24.0, 301.0, 30.0, 30.0 ],
					"style" : ""
				}

			}
, 			{
				"box" : 				{
					"id" : "obj-13",
					"maxclass" : "live.dial",
					"numinlets" : 1,
					"numoutlets" : 2,
					"outlettype" : [ "", "float" ],
					"parameter_enable" : 1,
					"patching_rect" : [ 166.0, 97.0, 44.0, 47.0 ],
					"presentation" : 1,
					"presentation_rect" : [ 19.0, 69.0, 44.0, 47.0 ],
					"saved_attribute_attributes" : 					{
						"valueof" : 						{
							"parameter_longname" : "freqency",
							"parameter_shortname" : "freq",
							"parameter_type" : 0,
							"parameter_mmax" : 20000.0,
							"parameter_unitstyle" : 1
						}

					}
,
					"varname" : "live.dial"
				}

			}
, 			{
				"box" : 				{
					"format" : 6,
					"id" : "obj-12",
					"maxclass" : "flonum",
					"numinlets" : 1,
					"numoutlets" : 2,
					"outlettype" : [ "", "bang" ],
					"parameter_enable" : 0,
					"patching_rect" : [ 166.0, 165.0, 50.0, 22.0 ],
					"style" : ""
				}

			}
, 			{
				"box" : 				{
					"id" : "obj-4",
					"maxclass" : "newobj",
					"numinlets" : 9,
					"numoutlets" : 1,
					"outlettype" : [ "" ],
					"patching_rect" : [ 166.0, 222.0, 103.0, 22.0 ],
					"style" : "",
					"text" : "pak f f f f f f f f f"
				}

			}
, 			{
				"box" : 				{
					"comment" : "",
					"id" : "obj-1",
					"index" : 1,
					"maxclass" : "inlet",
					"numinlets" : 0,
					"numoutlets" : 1,
					"outlettype" : [ "signal" ],
					"patching_rect" : [ 24.0, 63.0, 30.0, 30.0 ],
					"style" : ""
				}

			}
, 			{
				"box" : 				{
					"id" : "obj-8",
					"maxclass" : "newobj",
					"numinlets" : 1,
					"numoutlets" : 2,
					"outlettype" : [ "signal", "list" ],
					"patching_rect" : [ 24.0, 258.0, 177.0, 22.0 ],
					"style" : "",
					"text" : "resonators~ smooth 480. 0.5 1."
				}

			}
, 			{
				"box" : 				{
					"angle" : 270.0,
					"background" : 1,
					"grad1" : [ 0.65098, 0.666667, 0.662745, 1.0 ],
					"grad2" : [ 0.65098, 0.666667, 0.662745, 1.0 ],
					"id" : "obj-45",
					"maxclass" : "panel",
					"mode" : 1,
					"numinlets" : 1,
					"numoutlets" : 0,
					"patching_rect" : [ 141.0, 345.0, 128.0, 128.0 ],
					"presentation" : 1,
					"presentation_rect" : [ 15.0, 40.0, 168.0, 83.0 ],
					"proportion" : 0.39,
					"style" : ""
				}

			}
, 			{
				"box" : 				{
					"angle" : 270.0,
					"background" : 1,
					"grad1" : [ 0.65098, 0.666667, 0.662745, 1.0 ],
					"grad2" : [ 0.65098, 0.666667, 0.662745, 1.0 ],
					"id" : "obj-53",
					"maxclass" : "panel",
					"mode" : 1,
					"numinlets" : 1,
					"numoutlets" : 0,
					"patching_rect" : [ 153.5, 359.0, 128.0, 128.0 ],
					"presentation" : 1,
					"presentation_rect" : [ 362.0, 40.0, 168.0, 83.0 ],
					"proportion" : 0.39,
					"style" : ""
				}

			}
, 			{
				"box" : 				{
					"angle" : 270.0,
					"background" : 1,
					"grad1" : [ 0.65098, 0.666667, 0.662745, 1.0 ],
					"grad2" : [ 0.65098, 0.666667, 0.662745, 1.0 ],
					"id" : "obj-51",
					"maxclass" : "panel",
					"mode" : 1,
					"numinlets" : 1,
					"numoutlets" : 0,
					"patching_rect" : [ 171.0, 375.0, 128.0, 128.0 ],
					"presentation" : 1,
					"presentation_rect" : [ 189.0, 40.0, 168.0, 83.0 ],
					"proportion" : 0.39,
					"style" : ""
				}

			}
 ],
		"lines" : [ 			{
				"patchline" : 				{
					"destination" : [ "obj-44", 0 ],
					"source" : [ "obj-1", 0 ]
				}

			}
, 			{
				"patchline" : 				{
					"destination" : [ "obj-4", 0 ],
					"source" : [ "obj-12", 0 ]
				}

			}
, 			{
				"patchline" : 				{
					"destination" : [ "obj-12", 0 ],
					"source" : [ "obj-13", 0 ]
				}

			}
, 			{
				"patchline" : 				{
					"destination" : [ "obj-22", 0 ],
					"source" : [ "obj-16", 0 ]
				}

			}
, 			{
				"patchline" : 				{
					"destination" : [ "obj-4", 5 ],
					"source" : [ "obj-17", 0 ]
				}

			}
, 			{
				"patchline" : 				{
					"destination" : [ "obj-17", 0 ],
					"source" : [ "obj-21", 0 ]
				}

			}
, 			{
				"patchline" : 				{
					"destination" : [ "obj-4", 1 ],
					"source" : [ "obj-22", 0 ]
				}

			}
, 			{
				"patchline" : 				{
					"destination" : [ "obj-4", 4 ],
					"source" : [ "obj-23", 0 ]
				}

			}
, 			{
				"patchline" : 				{
					"destination" : [ "obj-27", 0 ],
					"source" : [ "obj-24", 0 ]
				}

			}
, 			{
				"patchline" : 				{
					"destination" : [ "obj-4", 2 ],
					"source" : [ "obj-27", 0 ]
				}

			}
, 			{
				"patchline" : 				{
					"destination" : [ "obj-23", 0 ],
					"source" : [ "obj-29", 0 ]
				}

			}
, 			{
				"patchline" : 				{
					"destination" : [ "obj-31", 0 ],
					"source" : [ "obj-30", 0 ]
				}

			}
, 			{
				"patchline" : 				{
					"destination" : [ "obj-4", 3 ],
					"source" : [ "obj-31", 0 ]
				}

			}
, 			{
				"patchline" : 				{
					"destination" : [ "obj-4", 8 ],
					"source" : [ "obj-33", 0 ]
				}

			}
, 			{
				"patchline" : 				{
					"destination" : [ "obj-33", 0 ],
					"source" : [ "obj-35", 0 ]
				}

			}
, 			{
				"patchline" : 				{
					"destination" : [ "obj-4", 7 ],
					"source" : [ "obj-36", 0 ]
				}

			}
, 			{
				"patchline" : 				{
					"destination" : [ "obj-36", 0 ],
					"source" : [ "obj-39", 0 ]
				}

			}
, 			{
				"patchline" : 				{
					"destination" : [ "obj-8", 0 ],
					"source" : [ "obj-4", 0 ]
				}

			}
, 			{
				"patchline" : 				{
					"destination" : [ "obj-41", 0 ],
					"source" : [ "obj-40", 0 ]
				}

			}
, 			{
				"patchline" : 				{
					"destination" : [ "obj-4", 6 ],
					"source" : [ "obj-41", 0 ]
				}

			}
, 			{
				"patchline" : 				{
					"destination" : [ "obj-8", 0 ],
					"source" : [ "obj-43", 0 ]
				}

			}
, 			{
				"patchline" : 				{
					"destination" : [ "obj-8", 0 ],
					"source" : [ "obj-44", 0 ]
				}

			}
, 			{
				"patchline" : 				{
					"destination" : [ "obj-14", 0 ],
					"source" : [ "obj-8", 0 ]
				}

			}
 ]
	}

}
